<?xml version="1.0" encoding="utf-8"?>
<!-- Generator: Adobe Illustrator 18.1.1, SVG Export Plug-In . SVG Version: 6.00 Build 0)  -->
<!DOCTYPE svg PUBLIC "-//W3C//DTD SVG 1.1//EN" "http://www.w3.org/Graphics/SVG/1.1/DTD/svg11.dtd">
<svg version="1.1" id="Layer_1" xmlns="http://www.w3.org/2000/svg" xmlns:xlink="http://www.w3.org/1999/xlink" x="0px" y="0px"
	 width="792px" height="612px" viewBox="0 0 792 612" style="enable-background:new 0 0 792 612;" xml:space="preserve">
<style type="text/css">
	.st0{fill:#D32C46;}
	.st1{fill:#FFFFFF;}
</style>
<g>
	<path class="st0" d="M443.1,247.4c8.1,1.2,13.7,4,15.4,4.9c2.6,1.4,7.3,4.2,11.6,9c3.6,4.1,5.4,7.9,6.4,10.2
		c2.4,5.9,2.5,11.1,2.3,13.9c-0.2,2.9-1,8.8-5,15.3c-0.6,1-2.9,4.5-7,8.2c-6.3,5.7-13,8.3-15.4,9.2c-3.7,1.3-12.4,4.4-23.6,2.7
		c-11.4-1.7-18.5-7.1-21.3-9.4c-2.7-2.1-10.6-8.6-13.4-19.6c-0.5-1.9-2.3-9.9,1.4-19.4c1.5-3.9,5.6-12.5,15.9-18.8
		c1.6-1,8.1-4.8,17.9-6.3C434.4,246.5,439.7,246.9,443.1,247.4z"/>
	<path class="st1" d="M416.8,282v14.1c0,0,0.7,2.8,3.2,3.5c2.4,0.6,19.3,0.5,19.3,0.5l11.4,0c0,0,3.2-1.2,3.3-3.8
		c0.1-2.6,0-14.3,0-14.3h-7.4v4.5c0,0-1.7,3-2.7,3.9c-1,0.8-4.5,3.1-5.3,3.1c-0.8,0-6.6,0.1-6.6,0.1s-3.3-1.4-4.6-2.6
		c-1.3-1.2-2.4-2.9-2.8-4c-0.4-1.2-0.2-5-0.2-5H416.8z"/>
	<path class="st1" d="M416.8,278.5v-7.4c0,0,1.9-3,3.9-3s29.1,0,29.1,0s4.1,1.4,4.2,2.9c0.1,1.6,0,7.5,0,7.5h-9.8
		c0,0-1.7-2.2-3.9-3.1s-7-1-8.1-0.7c-1.1,0.3-4.4,2.1-5,2.6c-0.6,0.5-0.8,1.3-0.8,1.3H416.8z"/>
	<ellipse class="st1" cx="435.2" cy="284" rx="7.1" ry="6.3"/>
	<ellipse class="st0" cx="446" cy="271.7" rx="2.8" ry="1.9"/>
</g>
<g>
</g>
<g>
</g>
<g>
</g>
<g>
</g>
<g>
</g>
<g>
</g>
</svg>
