<?xml version="1.0" encoding="utf-8"?>
<!-- Generator: Adobe Illustrator 18.1.1, SVG Export Plug-In . SVG Version: 6.00 Build 0)  -->
<!DOCTYPE svg PUBLIC "-//W3C//DTD SVG 1.1//EN" "http://www.w3.org/Graphics/SVG/1.1/DTD/svg11.dtd">
<svg version="1.1" id="Layer_1" xmlns="http://www.w3.org/2000/svg" xmlns:xlink="http://www.w3.org/1999/xlink" x="0px" y="0px"
	 width="792px" height="612px" viewBox="0 0 792 612" style="enable-background:new 0 0 792 612;" xml:space="preserve">
<style type="text/css">
	.st0{fill:#D32C46;}
	.st1{fill:#FBFCFE;}
</style>
<g>
	<path class="st0" d="M401,244.3c6.1,0.6,10.4,2.4,13.8,3.8c3.6,1.5,8.9,3.7,13.3,8.1c5.6,5.5,6.6,11.1,7.2,14.6
		c0.6,3.5,1.9,11.3-4.1,19.2c-4.1,5.5-9.8,8.4-12.3,9.6c-6.3,3.2-12.3,4.2-14.9,4.6c-14,2-25-2.2-27.2-3.1
		c-10.2-4.1-15-10.3-15.9-11.5c-6.5-8.7-6.5-19.7-0.5-28.4c7.1-10.4,19.8-14.1,23.1-15C387,245.2,393.2,243.5,401,244.3z"/>
	<path class="st1" d="M405.9,264.4v-5.1c0,0-3.8-0.3-6.1,0c-2.3,0.3-6.5,1.4-6.9,4.3c-0.4,2.8,0,5.1,0,5.1h-6.5v4.3h6.1l-0.2,13.7
		h6.9v-13.7h6.7v-4.1h-7.2c0,0-0.4-3.8,1.1-4.3C401.3,264.1,405.9,264.4,405.9,264.4z"/>
</g>
<g>
</g>
<g>
</g>
<g>
</g>
<g>
</g>
<g>
</g>
<g>
</g>
</svg>
