<?xml version="1.0" encoding="utf-8"?>
<!-- Generator: Adobe Illustrator 18.1.1, SVG Export Plug-In . SVG Version: 6.00 Build 0)  -->
<!DOCTYPE svg PUBLIC "-//W3C//DTD SVG 1.1//EN" "http://www.w3.org/Graphics/SVG/1.1/DTD/svg11.dtd">
<svg version="1.1" id="Layer_1" xmlns="http://www.w3.org/2000/svg" xmlns:xlink="http://www.w3.org/1999/xlink" x="0px" y="0px"
	 width="792px" height="612px" viewBox="0 0 792 612" style="enable-background:new 0 0 792 612;" xml:space="preserve">
<style type="text/css">
	.st0{fill:#F9A12B;}
	.st1{fill:#D32C46;}
	.st2{fill:#FFFFFF;}
	.st3{fill:#FBFCFE;}
</style>
<rect x="210.3" y="214.9" class="st0" width="414" height="69.7"/>
<g>
	<g>
		<path class="st1" d="M490.7,217.9c7.9,1,13.4,3.5,15,4.3c2.6,1.2,7.1,3.7,11.3,7.9c3.5,3.6,5.3,6.9,6.2,8.9
			c2.3,5.2,2.4,9.7,2.2,12.2c-0.2,2.5-0.9,7.7-4.9,13.4c-0.6,0.8-2.8,3.9-6.9,7.2c-6.1,5-12.6,7.3-15,8.1c-3.6,1.2-12.1,3.8-23,2.4
			c-11.1-1.5-18-6.3-20.8-8.2c-2.6-1.9-10.4-7.5-13-17.1c-0.5-1.6-2.2-8.6,1.3-17c1.5-3.4,5.5-11,15.5-16.4
			c1.5-0.8,7.9-4.2,17.5-5.5C482.2,217.1,487.4,217.4,490.7,217.9z"/>
		<path class="st2" d="M465.1,248.1v12.4c0,0,0.7,2.5,3.1,3c2.4,0.5,18.8,0.5,18.8,0.5l11.1,0c0,0,3.1-1,3.2-3.3s0-12.5,0-12.5h-7.2
			v3.9c0,0-1.7,2.7-2.6,3.4c-0.9,0.7-4.4,2.7-5.2,2.7s-6.4,0.1-6.4,0.1s-3.2-1.2-4.5-2.2s-2.4-2.5-2.7-3.5c-0.4-1-0.2-4.4-0.2-4.4
			H465.1z"/>
		<path class="st2" d="M465.1,245.1v-6.5c0,0,1.9-2.7,3.8-2.7s28.4,0,28.4,0s4,1.2,4.1,2.6s0,6.6,0,6.6h-9.5c0,0-1.7-1.9-3.8-2.7
			c-2.1-0.8-6.9-0.9-7.9-0.6c-1.1,0.3-4.3,1.8-4.8,2.3c-0.6,0.5-0.8,1.1-0.8,1.1H465.1z"/>
		<ellipse class="st2" cx="483" cy="249.9" rx="6.9" ry="5.5"/>
		<ellipse class="st1" cx="493.6" cy="239.1" rx="2.7" ry="1.7"/>
	</g>
	<g>
		<path class="st1" d="M384.2,218.5c6.2,0.6,10.6,2.5,14.2,4c3.7,1.6,9.1,3.9,13.7,8.4c5.7,5.7,6.8,11.6,7.4,15.2
			c0.6,3.6,1.9,11.8-4.2,20c-4.3,5.7-10.1,8.7-12.6,10c-6.5,3.3-12.6,4.4-15.3,4.8c-14.4,2.1-25.7-2.3-27.9-3.2
			c-10.5-4.3-15.4-10.7-16.3-12c-6.7-9.1-6.7-20.5-0.5-29.7c7.2-10.8,20.4-14.7,23.7-15.6C369.8,219.5,376.1,217.7,384.2,218.5z"/>
		<path class="st3" d="M389.2,239.5v-5.3c0,0-3.9-0.3-6.3,0s-6.7,1.5-7.1,4.4s0,5.3,0,5.3h-6.7v4.4h6.3l-0.2,14.3h7.1v-14.3h6.9
			v-4.3h-7.4c0,0-0.4-4,1.1-4.4S389.2,239.5,389.2,239.5z"/>
	</g>
</g>
<g>
</g>
<g>
</g>
<g>
</g>
<g>
</g>
<g>
</g>
<g>
</g>
</svg>
